#!OML:ASF F:\VICON\USERDATA\INSTALL\rory3\rory3.ASF
:FULLY-SPECIFIED
:DEGREES
725
root 1.03077 15.3161 -5.29412 -2.79797 -0.161067 1.84638
lowerback -5.98295 11.3245 8.52087
upperback -4.81163 14.8633 -7.90697
thorax 2.45116 7.47048 -11.4119
lowerneck 4.55725 -8.38487 -13.734
upperneck 50.425 -4.53032 -12.3766
head 19.3493 -5.65751 -4.34182
rclavicle -4.25399e-014 -2.06736e-014
rhumerus 66.2903 -4.80106 -72.8664
rradius 144.989
rwrist -63.0358
rhand -0.714365 -39.7709
rfingers 7.12502
rthumb 24.906 -68.1682
lclavicle -4.25399e-014 -2.06736e-014
lhumerus -55.7724 -13.9127 82.8339
lradius 32.5094
lwrist 17.9256
lhand -13.1615 -25.8937
lfingers 7.12502
lthumb 12.9375 3.68522
rfemur -20.1547 -35.7713 22.6783
rtibia 67.665
rfoot -47.8071 -38.8576
rtoes 8.16885
lfemur -38.7262 -19.3622 -2.23641
ltibia 21.4244
lfoot 10.1023 -8.15449
ltoes -15.4821
726
root 1.02558 15.318 -5.28864 -2.84571 -0.239556 1.74265
lowerback -6.04856 11.3515 8.56901
upperback -4.80057 14.8905 -7.85157
thorax 2.50216 7.48495 -11.3566
lowerneck 4.7244 -8.35913 -13.4609
upperneck 50.4829 -4.37856 -12.7269
head 19.3154 -5.58097 -4.53641
rclavicle -1.18476e-013 2.54444e-014
rhumerus 66.3566 -4.74274 -72.816
rradius 144.922
rwrist -63.1346
rhand -0.920826 -39.9138
rfingers 7.12502
rthumb 24.7081 -68.3384
lclavicle -1.18476e-013 2.54444e-014
lhumerus -55.9589 -13.8851 82.868
lradius 32.6561
lwrist 17.958
lhand -13.9679 -26.9289
lfingers 7.12502
lthumb 12.16 2.69769
rfemur -20.0656 -35.7199 22.7925
rtibia 67.6011
rfoot -47.6672 -39.0702
rtoes 7.95323
lfemur -38.6254 -19.3457 -2.10729
ltibia 21.4171
lfoot 10.041 -8.142
ltoes -15.7442
727
root 1.01738 15.3204 -5.2846 -2.97497 -0.218953 1.65059
lowerback -6.03283 11.3607 8.6058
upperback -4.7394 14.9008 -7.79056
thorax 2.55384 7.49384 -11.3038
lowerneck 4.76396 -8.36115 -13.3549
upperneck 50.5654 -4.28184 -12.9408
head 19.3546 -5.54371 -4.65974
rclavicle -1.16488e-013 6.67916e-014
rhumerus 66.3793 -4.77463 -72.7292
rradius 144.983
rwrist -63.2471
rhand -1.25075 -40.5011
rfingers 7.12502
rthumb 24.3918 -68.9686
lclavicle -1.16488e-013 6.67916e-014
lhumerus -56.1418 -13.9992 83.0144
lradius 32.9199
lwrist 18.2108
lhand -14.8626 -27.0719
lfingers 7.12502
lthumb 11.2972 2.60389
rfemur -19.8087 -35.7212 22.8117
rtibia 67.5421
rfoot -47.9572 -38.7428
rtoes 8.25845
lfemur -38.4732 -19.3949 -2.0333
ltibia 21.424
lfoot 9.96009 -8.18966
ltoes -15.819
728
root 1.01313 15.3206 -5.28367 -2.96949 -0.0701579 1.77817
lowerback -6.06572 11.3332 8.43028
upperback -4.73355 14.8694 -7.80636
thorax 2.53191 7.47715 -11.2277
lowerneck 4.64853 -8.40369 -13.4888
upperneck 50.6324 -4.27363 -12.992
head 19.4515 -5.57191 -4.68727
rclavicle 7.71285e-014 -4.6118e-014
rhumerus 66.4562 -4.83366 -72.6205
rradius 145.038
rwrist -63.522
rhand -1.82083 -41.7159
rfingers 7.12502
rthumb 23.8452 -70.2558
lclavicle 7.71285e-014 -4.6118e-014
lhumerus -56.2467 -13.9987 83.0409
lradius 33.0127
lwrist 18.3473
lhand -15.6523 -26.718
lfingers 7.12502
lthumb 10.5356 2.99792
rfemur -19.7494 -35.8478 22.6336
rtibia 67.5176
rfoot -48.4062 -38.2448
rtoes 8.81197
lfemur -38.5749 -19.4769 -2.19293
ltibia 21.5376
lfoot 9.9339 -8.25773
ltoes -15.7433
729
root 1.02175 15.3191 -5.28053 -2.99594 -0.0908559 1.79536
lowerback -6.05664 11.353 8.55004
upperback -4.74035 14.8922 -7.80565
thorax 2.55424 7.48973 -11.2878
lowerneck 4.55518 -8.43863 -13.7516
upperneck 50.6675 -4.29569 -12.9458
head 19.5361 -5.62649 -4.64442
rclavicle -9.34288e-014 2.70347e-014
rhumerus 66.5224 -4.82209 -72.5782
rradius 145.049
rwrist -63.7427
rhand -1.99223 -42.3494
rfingers 7.12502
rthumb 23.6808 -70.9107
lclavicle -9.34288e-014 2.70347e-014
lhumerus -55.9562 -13.5901 82.7539
lradius 32.4511
lwrist 18.0859
lhand -15.5297 -27.1155
lfingers 7.12502
lthumb 10.6538 2.59445
rfemur -19.6749 -35.8766 22.5338
rtibia 67.4881
rfoot -48.4389 -38.2327
rtoes 8.78827
lfemur -38.6341 -19.4983 -2.2296
ltibia 21.7182
lfoot 9.96774 -8.11853
ltoes -15.4727
730
root 1.03923 15.3175 -5.27488 -3.1932 -0.229812 1.44093
lowerback -5.94364 11.4103 9.23985
upperback -4.66002 14.9493 -7.70827
thorax 2.73321 7.53095 -11.5477
lowerneck 4.48474 -8.46189 -13.9188
upperneck 50.6316 -4.29917 -12.9585
head 19.5499 -5.66034 -4.6277
rclavicle 8.42847e-014 2.54444e-014
rhumerus 66.5739 -4.77019 -72.5327
rradius 145.104
rwrist -63.7754
rhand -2.0174 -42.4112
rfingers 7.12502
rthumb 23.6567 -70.9757
lclavicle 8.42847e-014 2.54444e-014
lhumerus -55.3609 -13.1395 82.4758
lradius 31.653
lwrist 17.8324
lhand -15.7887 -27.0226
lfingers 7.12502
lthumb 10.404 2.69995
rfemur -19.3266 -35.8531 22.7051
rtibia 67.389
rfoot -48.0515 -38.4473
rtoes 8.3605
lfemur -38.5078 -19.4628 -1.94054
ltibia 21.9726
lfoot 9.86418 -8.01795
ltoes -15.3874
731
root 1.04649 15.3162 -5.27241 -3.2832 -0.250228 1.17039
lowerback -5.88923 11.4624 9.69395
upperback -4.64335 15.0055 -7.66722
thorax 2.83512 7.56606 -11.7397
lowerneck 4.58614 -8.49624 -13.9637
upperneck 50.5691 -4.39917 -12.9101
head 19.4787 -5.70271 -4.59016
rclavicle -1.71352e-013 7.15625e-014
rhumerus 66.5631 -4.83442 -72.4431
rradius 145.196
rwrist -63.798
rhand -2.22188 -42.7403
rfingers 7.12502
rthumb 23.4606 -71.3299
lclavicle -1.71352e-013 7.15625e-014
lhumerus -55.6645 -13.2625 82.5603
lradius 32.3818
lwrist 18.1439
lhand -14.8353 -26.4579
lfingers 7.12502
lthumb 11.3236 3.21638
rfemur -19.1653 -35.9094 22.9183
rtibia 67.2814
rfoot -47.5282 -38.6505
rtoes 7.62502
lfemur -38.5975 -19.448 -1.70132
ltibia 22.3343
lfoot 9.6157 -7.98607
ltoes -15.2888
732
root 1.04161 15.314 -5.27182 -3.34113 -0.254541 0.94331
lowerback -5.7952 11.5024 9.91794
upperback -4.68052 15.0562 -7.62892
thorax 2.80149 7.58797 -11.8288
lowerneck 4.64768 -8.52634 -13.9196
upperneck 50.5708 -4.48284 -12.8661
head 19.4545 -5.72407 -4.5795
rclavicle 4.21423e-014 -4.77083e-015
rhumerus 66.5006 -4.97547 -72.4159
rradius 145.324
rwrist -63.8951
rhand -2.21332 -42.9032
rfingers 7.12502
rthumb 23.4688 -71.4918
lclavicle 4.21423e-014 -4.77083e-015
lhumerus -55.9803 -13.4526 82.627
lradius 32.9509
lwrist 18.504
lhand -14.9359 -26.3401
lfingers 7.12502
lthumb 11.2265 3.33952
rfemur -19.0556 -35.8652 23.1781
rtibia 67.1854
rfoot -47.308 -38.6907
rtoes 7.16486
lfemur -38.7394 -19.4077 -1.46631
ltibia 22.7163
lfoot 9.35434 -7.85951
ltoes -14.655
733
root 1.0372 15.3125 -5.26858 -3.43436 -0.320735 0.68621
lowerback -5.72461 11.5421 10.1847
upperback -4.7021 15.1019 -7.55679
thorax 2.79701 7.60841 -11.8982
lowerneck 4.57208 -8.55101 -13.837
upperneck 50.6201 -4.47509 -12.9442
head 19.4989 -5.71624 -4.64435
rclavicle 6.24184e-014 1.59028e-015
rhumerus 66.4727 -5.00625 -72.4136
rradius 145.447
rwrist -63.8683
rhand -2.25044 -43.068
rfingers 7.12502
rthumb 23.4332 -71.6611
lclavicle 6.24184e-014 1.59028e-015
lhumerus -56.2757 -13.5378 82.6644
lradius 33.4258
lwrist 18.7913
lhand -13.7242 -26.4402
lfingers 7.12502
lthumb 12.395 3.17234
rfemur -18.8755 -35.7833 23.4274
rtibia 67.1007
rfoot -47.3554 -38.9213
rtoes 7.13189
lfemur -38.7579 -19.3495 -1.20849
ltibia 23.0017
lfoot 9.17556 -7.7752
ltoes -14.1483
